<?xml version="1.0" encoding="utf-8"?>
<!-- Generator: Adobe Illustrator 25.4.1, SVG Export Plug-In . SVG Version: 6.00 Build 0)  -->
<svg version="1.1" id="Layer_1" xmlns="http://www.w3.org/2000/svg" xmlns:xlink="http://www.w3.org/1999/xlink" x="0px" y="0px"
	 viewBox="0 0 75.9 75.9" style="enable-background:new 0 0 75.9 75.9;" xml:space="preserve">
<style type="text/css">
	.st0{fill:#175287;}
</style>
<g>
	<path class="st0" d="M74.8,47l-3.2-0.7c-0.2-0.8-0.4-1.6-0.6-2.4l2.4-2.2c0.4-0.4,0.5-1,0.3-1.4c-0.7-1.5-1.5-3-2.5-4.4
		c-0.3-0.4-0.9-0.6-1.4-0.5l-3.1,0.9c-0.6-0.6-1.1-1.2-1.8-1.8l0.9-3.1c0.2-0.5,0-1.1-0.5-1.4c-0.7-0.5-1.4-0.9-2.1-1.4V6.3
		c0-3.5-2.8-6.3-6.3-6.3H6.3C2.8,0,0,2.8,0,6.3v32.9c0,3.5,2.8,6.3,6.3,6.3h13.4l-4.1,11.4H8.9c-0.7,0-1.3,0.6-1.3,1.3
		c0,3.5,2.8,6.3,6.3,6.3h15.6c0.2,0.3,0.4,0.6,0.5,0.8c0.3,0.4,0.9,0.6,1.4,0.5l3.1-0.9c0.6,0.6,1.1,1.2,1.8,1.8l-0.9,3.1
		c-0.2,0.5,0,1.1,0.5,1.4c1.4,1,2.8,1.8,4.4,2.5c0.5,0.2,1.1,0.1,1.4-0.3l2.2-2.4c0.8,0.3,1.6,0.5,2.4,0.6l0.7,3.2
		c0.1,0.5,0.6,0.9,1.1,1c0.9,0.1,1.7,0.1,2.5,0.1s1.7,0,2.5-0.1c0.5-0.1,1-0.4,1.1-1l0.7-3.2c0.8-0.2,1.6-0.4,2.4-0.6l2.2,2.4
		c0.4,0.4,1,0.5,1.4,0.3c1.5-0.7,3-1.5,4.4-2.5c0.4-0.3,0.6-0.9,0.5-1.4l-0.9-3.1c0.6-0.6,1.2-1.1,1.8-1.8l3.1,0.9
		c0.5,0.2,1.1,0,1.4-0.5c1-1.4,1.8-2.8,2.5-4.4c0.2-0.5,0.1-1.1-0.3-1.4L71,57.4c0.3-0.8,0.5-1.6,0.6-2.4l3.2-0.7
		c0.5-0.1,0.9-0.6,1-1.1c0.1-0.9,0.1-1.7,0.1-2.5c0-0.8,0-1.7-0.1-2.5C75.7,47.6,75.3,47.1,74.8,47L74.8,47z M6.3,2.5h50.6
		c2.1,0,3.8,1.7,3.8,3.8v21.2c-0.4-0.1-0.9,0-1.2,0.4l-2.2,2.4c-0.8-0.3-1.6-0.5-2.4-0.6l-0.7-3.2c-0.1-0.5-0.6-0.9-1.1-1
		c-1.7-0.2-3.3-0.2-5,0c-0.5,0.1-1,0.4-1.1,1l-0.7,3.2c-0.8,0.2-1.6,0.4-2.4,0.6l-2.2-2.4c-0.4-0.4-1-0.5-1.4-0.3
		c-1.5,0.7-3,1.5-4.4,2.5c-0.4,0.3-0.6,0.9-0.5,1.4l0.4,1.4H10.1V17.7h12.7v-2.5H10.1V7.6h43v15.2h2.5V6.3c0-0.7-0.6-1.3-1.3-1.3
		H8.9c-0.7,0-1.3,0.6-1.3,1.3v26.6H2.5V6.3C2.5,4.2,4.2,2.5,6.3,2.5L6.3,2.5z M35.4,35.4c-0.3,0.3-0.6,0.6-0.9,0.9l-2.9-0.9H35.4z
		 M2.5,39.2v-3.8h28.1c-0.2,0.1-0.4,0.2-0.5,0.4c-1,1.4-1.8,2.8-2.5,4.4c-0.2,0.5-0.1,1.1,0.3,1.4l1.5,1.4h-23
		C4.2,43,2.5,41.3,2.5,39.2L2.5,39.2z M22.4,45.5h7.3c-0.1,0.2-0.1,0.5-0.2,0.7L26.4,47c-0.5,0.1-0.9,0.6-1,1.1
		c-0.1,0.9-0.1,1.7-0.1,2.5s0,1.7,0.1,2.5c0.1,0.5,0.4,1,1,1.1l3.2,0.7c0.1,0.7,0.3,1.3,0.5,2H18.3L22.4,45.5z M13.9,62
		c-1.6,0-3.1-1.1-3.6-2.5H28l-0.1,0.1c-0.4,0.4-0.5,1-0.3,1.4c0.2,0.3,0.3,0.7,0.5,1L13.9,62z M73.3,52l-3.1,0.7
		c-0.5,0.1-0.9,0.5-1,1c-0.2,1.2-0.5,2.4-1,3.6c-0.2,0.5-0.1,1,0.3,1.4l2.3,2.1c-0.4,0.8-0.9,1.6-1.4,2.4l-3-0.9
		c-0.5-0.2-1,0-1.3,0.4c-0.8,1-1.7,1.8-2.6,2.6c-0.4,0.3-0.6,0.9-0.4,1.3l0.9,3c-0.8,0.5-1.6,1-2.4,1.4l-2.1-2.3
		c-0.3-0.4-0.9-0.5-1.4-0.3c-1.1,0.4-2.3,0.8-3.6,1c-0.5,0.1-0.9,0.5-1,1L52,73.3c-0.9,0.1-1.8,0.1-2.7,0l-0.7-3.1
		c-0.1-0.5-0.5-0.9-1-1c-1.2-0.2-2.4-0.5-3.6-1c-0.5-0.2-1-0.1-1.4,0.3L40.4,71c-0.8-0.4-1.6-0.9-2.4-1.4l0.9-3c0.1-0.5,0-1-0.4-1.3
		c-1-0.8-1.8-1.7-2.6-2.6c-0.3-0.4-0.9-0.6-1.3-0.4l-3,0.9c-0.5-0.8-1-1.6-1.4-2.4l2.3-2.1c0.4-0.3,0.5-0.9,0.3-1.4
		c-0.4-1.1-0.8-2.3-1-3.6c-0.1-0.5-0.5-0.9-1-1L27.9,52c0-0.5,0-0.9,0-1.4s0-0.9,0-1.4l3.1-0.7c0.5-0.1,0.9-0.5,1-1
		c0.2-1.2,0.5-2.4,1-3.6c0.2-0.5,0.1-1-0.3-1.4l-2.3-2.1c0.4-0.8,0.9-1.6,1.4-2.4l3,0.9c0.5,0.1,1,0,1.3-0.4c0.8-1,1.7-1.8,2.6-2.6
		c0.4-0.3,0.6-0.9,0.4-1.3l-0.9-3c0.8-0.5,1.6-1,2.4-1.4l2.1,2.3c0.3,0.4,0.9,0.5,1.4,0.3c1.1-0.4,2.3-0.8,3.6-1
		c0.5-0.1,0.9-0.5,1-1l0.7-3.1c0.9-0.1,1.8-0.1,2.7,0l0.7,3.1c0.1,0.5,0.5,0.9,1,1c1.2,0.2,2.4,0.5,3.6,1c0.5,0.2,1,0.1,1.4-0.3
		l2.1-2.3c0.8,0.4,1.6,0.9,2.4,1.4l-0.9,3c-0.1,0.5,0,1,0.4,1.3c1,0.8,1.8,1.7,2.6,2.6c0.3,0.4,0.9,0.6,1.3,0.4l3-0.9
		c0.5,0.8,1,1.6,1.4,2.4l-2.3,2.1c-0.4,0.3-0.5,0.9-0.3,1.4c0.4,1.1,0.8,2.3,1,3.6c0.1,0.5,0.5,0.9,1,1l3.1,0.7c0,0.5,0,0.9,0,1.4
		S73.4,51.5,73.3,52L73.3,52z"/>
	<path class="st0" d="M59.5,50.6c0-4.9-4-8.9-8.9-8.9s-8.9,4-8.9,8.9s4,8.9,8.9,8.9S59.5,55.5,59.5,50.6z M50.6,56.9
		c-3.5,0-6.3-2.8-6.3-6.3s2.8-6.3,6.3-6.3c3.5,0,6.3,2.8,6.3,6.3S54.1,56.9,50.6,56.9z"/>
	<path class="st0" d="M40.4,43.2l-2-1.5c-0.5,0.7-1,1.5-1.4,2.3l2.3,1.1C39.5,44.5,39.9,43.8,40.4,43.2z"/>
	<path class="st0" d="M50,38l-0.1-2.5c-0.9,0-1.8,0.2-2.7,0.4l0.6,2.5C48.5,38.1,49.2,38,50,38z"/>
	<path class="st0" d="M60,38.7l-1.6,2c0.6,0.5,1.1,1,1.6,1.6l1.9-1.7C61.4,39.9,60.7,39.3,60,38.7L60,38.7z"/>
	<path class="st0" d="M38.4,54L36,54.7c0.2,0.9,0.6,1.7,1,2.5l2.3-1.1C38.9,55.4,38.6,54.7,38.4,54L38.4,54z"/>
	<path class="st0" d="M44.6,39.5l-1.2-2.2c-0.8,0.4-1.6,0.9-2.3,1.5l1.6,2C43.3,40.3,43.9,39.8,44.6,39.5L44.6,39.5z"/>
	<path class="st0" d="M63.1,52.9l2.5,0.4c0.2-0.9,0.2-1.8,0.2-2.7v-0.1l-2.5,0.1C63.3,51.4,63.2,52.1,63.1,52.9z"/>
	<path class="st0" d="M51.2,63.2l0.1,2.5c0.9,0,1.8-0.2,2.7-0.4l-0.6-2.5C52.7,63.1,51.9,63.2,51.2,63.2L51.2,63.2z"/>
	<path class="st0" d="M60.8,58l2,1.5c0.5-0.7,1-1.5,1.4-2.3L62,56.1C61.7,56.8,61.3,57.4,60.8,58L60.8,58z"/>
	<path class="st0" d="M62.8,47.2l2.4-0.7c-0.2-0.9-0.6-1.7-1-2.5L62,45.1C62.3,45.8,62.6,46.5,62.8,47.2z"/>
	<path class="st0" d="M56.6,61.7l1.2,2.2c0.8-0.4,1.6-0.9,2.3-1.5l-1.6-2C57.9,61,57.3,61.4,56.6,61.7L56.6,61.7z"/>
	<path class="st0" d="M44.7,64.6c0.8,0.4,1.7,0.6,2.6,0.8l0.6-2.5c-0.7-0.2-1.5-0.4-2.2-0.7L44.7,64.6z"/>
	<path class="st0" d="M41.1,58.9l-1.9,1.7c0.6,0.7,1.3,1.3,2,1.9l1.6-2C42.1,60,41.6,59.5,41.1,58.9L41.1,58.9z"/>
	<path class="st0" d="M56.5,36.6c-0.8-0.4-1.7-0.6-2.6-0.8l-0.6,2.5c0.7,0.2,1.5,0.4,2.2,0.7L56.5,36.6z"/>
	<path class="st0" d="M38.1,48.4l-2.5-0.4c-0.2,0.9-0.2,1.8-0.2,2.7v0l2.5,0C38,49.9,38,49.1,38.1,48.4z"/>
	<path class="st0" d="M45.2,11.8l-1.8,1.8l2.9,2.9H30.4c-3.5,0-6.3,2.8-6.3,6.3v7.6h2.5v-7.6c0-2.1,1.7-3.8,3.8-3.8h15.9l-2.9,2.9
		l1.8,1.8l5.1-5.1c0.5-0.5,0.5-1.3,0-1.8L45.2,11.8z"/>
	<path class="st0" d="M12.7,10.1h2.5v2.5h-2.5V10.1z"/>
	<path class="st0" d="M17.7,10.1h2.5v2.5h-2.5V10.1z"/>
	<path class="st0" d="M22.8,10.1h2.5v2.5h-2.5V10.1z"/>
</g>
</svg>
