<?xml version="1.0" encoding="utf-8"?>
<!-- Generator: Adobe Illustrator 25.4.1, SVG Export Plug-In . SVG Version: 6.00 Build 0)  -->
<svg version="1.1" id="Layer_1" xmlns="http://www.w3.org/2000/svg" xmlns:xlink="http://www.w3.org/1999/xlink" x="0px" y="0px"
	 viewBox="0 0 763.7 763.7" style="enable-background:new 0 0 763.7 763.7;" xml:space="preserve">
<style type="text/css">
	.st0{fill:#54B1EA;}
	.st1{fill:#7FC2F4;}
	.st2{fill:#4BA1EF;}
	.st3{clip-path:url(#SVGID_00000114786023633504004590000015732532839833041036_);}
	.st4{fill:#33A7C1;}
	.st5{fill:#116FA3;}
	.st6{fill:#1A87A0;}
</style>
<g>
	<g>
		<path class="st0" d="M381.8,763.7c-51.5,0-101.5-10.1-148.6-30c-45.5-19.2-86.3-46.8-121.4-81.8C76.8,616.8,49.2,575.9,30,530.5
			C10.1,483.4,0,433.4,0,381.8c0-61.6,14.2-120.3,42.2-174.7c26.7-51.8,65.7-97.6,112.7-132.4c26.8-19.8,56-36,86.8-48.2
			C286.3,8.9,333.5,0,381.8,0c51.5,0,101.5,10.1,148.6,30c4.1,1.7,6,6.4,4.3,10.5s-6.4,6-10.5,4.3C479.1,25.7,431.2,16,381.8,16
			c-46.3,0-91.5,8.5-134.2,25.4c-29.6,11.7-57.6,27.2-83.2,46.2c-45,33.3-82.4,77.2-108,126.9C29.6,266.5,16,322.8,16,381.8
			c0,49.4,9.7,97.3,28.7,142.4c18.4,43.6,44.8,82.7,78.4,116.3c33.6,33.6,72.7,60,116.3,78.4c45.1,19.1,93,28.7,142.4,28.7
			s97.3-9.7,142.4-28.7c43.6-18.4,82.7-44.8,116.3-78.4c33.6-33.6,60-72.7,78.4-116.3c19.1-45.1,28.7-93,28.7-142.4c0-4.4,3.6-8,8-8
			s8,3.6,8,8c0,51.5-10.1,101.5-30,148.6c-19.2,45.5-46.8,86.3-81.8,121.4c-35.1,35.1-75.9,62.6-121.4,81.8
			C483.4,753.6,433.4,763.7,381.8,763.7z"/>
	</g>
	<g>
		<path class="st1" d="M386.8,723c-4.4,0-8-3.6-8-8s3.6-8,8-8c87.8,0,170.3-34.2,232.3-96.2c62.1-62.1,96.2-144.6,96.2-232.3
			s-34.2-170.3-96.2-232.3c-62.1-62.1-144.6-96.2-232.3-96.2c-41.6,0-82.2,7.7-120.5,22.8c-26.6,10.5-51.7,24.4-74.7,41.5
			c-3.6,2.6-8.6,1.9-11.2-1.7c-2.6-3.6-1.9-8.6,1.7-11.2c24.2-17.9,50.5-32.5,78.4-43.5c40.2-15.9,82.8-23.9,126.4-23.9
			c46.5,0,91.6,9.1,134.1,27.1c41,17.4,77.9,42.2,109.5,73.8c31.6,31.6,56.5,68.5,73.8,109.5c18,42.5,27.1,87.6,27.1,134.1
			s-9.1,91.6-27.1,134.1c-17.4,41-42.2,77.9-73.8,109.5C598.8,653.8,562,678.6,521,696C478.5,713.9,433.4,723,386.8,723z"/>
	</g>
	<g>
		<path class="st2" d="M337.2,712.5c-0.4,0-0.8,0-1.2-0.1c-27.6-4.1-54.6-11.8-80.1-22.9c-36.9-16-70.1-38.7-98.8-67.4
			c-60.5-60.5-93.8-140.9-93.8-226.5s33.3-166,93.8-226.5c60.5-60.5,140.9-93.8,226.5-93.8c85.5,0,166,33.3,226.5,93.8
			c3.1,3.1,3.1,8.2,0,11.3c-3.1,3.1-8.2,3.1-11.3,0C541.2,123,464.8,91.4,383.5,91.4c-81.3,0-157.7,31.7-215.2,89.1
			C110.9,238,79.3,314.4,79.3,395.6c0,81.3,31.7,157.7,89.1,215.2c27.3,27.3,58.8,48.8,93.9,64c24.3,10.5,49.9,17.9,76.1,21.8
			c4.4,0.7,7.4,4.7,6.7,9.1C344.5,709.6,341.1,712.5,337.2,712.5z"/>
	</g>
	<g>
		<defs>
			<circle id="SVGID_1_" cx="370.6" cy="385.8" r="238.4"/>
		</defs>
		<clipPath id="SVGID_00000062164003977239037620000005557695849816588198_">
			<use xlink:href="#SVGID_1_"  style="overflow:visible;"/>
		</clipPath>
		<g style="clip-path:url(#SVGID_00000062164003977239037620000005557695849816588198_);">
			<path class="st4" d="M-34.8-71.9v1334h420.5c-196.1-173.4-206.9-476.3,133.4-657.3c470.4-250.2,490.8-517.7,491.5-676.8H-34.8z"
				/>
			<path class="st5" d="M-91.1-315.5V773H252C92,631.6,83.2,384.4,360.8,236.7c383.9-204.2,400.5-422.4,401-552.2H-91.1z"/>
			<path class="st6" d="M549.3,955.8L934,576.9L814.6,455.6c5.7,105.8-78.6,194.9-227.4,148.2c-205.8-64.6-288.7,5.5-334.8,50.5
				L549.3,955.8z"/>
		</g>
	</g>
</g>
</svg>
